#N canvas -8 -8 1366 695 10;
#X obj 694 670 dac~;
#N canvas -8 -8 1366 695 reverb2 0;
#X obj 161 497 +~;
#X obj 520 105 inlet;
#X obj 184 407 *~;
#X obj 486 412 *~;
#X obj 285 412 *~;
#X obj 387 412 *~;
#X obj 443 546 -~;
#X obj 364 545 -~;
#X obj 239 537 +~;
#X obj 161 534 +~;
#X obj 162 444 +~;
#X obj 262 440 +~;
#X obj 464 501 -~;
#X obj 387 499 +~;
#X obj 239 500 -~;
#X obj 452 105 inlet;
#X obj 609 429 line~;
#X obj 509 374 line~;
#X obj 16 121 delread~ \$0-del1 58.6435;
#X obj 94 143 delread~ \$0-del2 69.4325;
#X obj 176 165 delread~ \$0-del3 74.5234;
#X obj 258 189 delread~ \$0-del4 86.1244;
#X obj 530 500 *~;
#X obj 599 501 *~;
#X obj 161 641 delwrite~ \$0-del1 58.6435;
#X obj 240 617 delwrite~ \$0-del2 69.4325;
#X obj 365 595 delwrite~ \$0-del3 74.5234;
#X obj 444 573 delwrite~ \$0-del4 86.1244;
#X obj 609 357 dbtorms;
#X obj 609 403 pack 0 30;
#X obj 520 211 pack 0 50;
#X obj 9 390 inlet~;
#X obj 530 525 outlet~;
#X obj 599 525 outlet~;
#X obj 520 187 / 200;
#X obj 520 162 clip 0 100;
#X obj 52 236 lop~;
#X obj 452 137 f \$1;
#X obj 520 138 f \$2;
#X obj 625 143 f \$3;
#X obj 696 143 f \$4;
#X obj 367 106 loadbang;
#X obj 667 500 *~;
#X obj 735 501 *~;
#X obj 667 525 outlet~;
#X obj 735 525 outlet~;
#X obj 625 167 moses 1;
#X msg 631 193 3000;
#X obj 705 193 clip 0 100;
#N canvas 341 84 355 597 early-reflect 0;
#X obj 84 119 -~;
#X obj 49 119 +~;
#X obj 50 195 +~;
#X obj 85 196 -~;
#X obj 84 275 -~;
#X obj 49 274 +~;
#X obj 82 349 -~;
#X obj 48 350 +~;
#X obj 83 428 -~;
#X obj 49 428 +~;
#X obj 65 7 inlet~;
#X obj 49 508 outlet~;
#X obj 119 507 outlet~;
#X obj 110 66 delwrite~ \$0-ref1 43.5337;
#X obj 110 90 delread~ \$0-ref1 43.5337;
#X obj 107 145 delwrite~ \$0-ref2 25.796;
#X obj 107 169 delread~ \$0-ref2 25.796;
#X obj 106 223 delwrite~ \$0-ref3 19.392;
#X obj 106 247 delread~ \$0-ref3 19.392;
#X obj 102 300 delwrite~ \$0-ref4 16.364;
#X obj 102 324 delread~ \$0-ref4 16.364;
#X obj 119 452 delwrite~ \$0-ref6 4.2546;
#X obj 119 477 delread~ \$0-ref6 4.2546;
#X obj 106 376 delwrite~ \$0-ref5 7.645;
#X obj 106 400 delread~ \$0-ref5 7.645;
#X connect 0 0 15 0;
#X connect 1 0 3 0;
#X connect 1 0 2 0;
#X connect 2 0 5 0;
#X connect 2 0 4 0;
#X connect 3 0 17 0;
#X connect 4 0 19 0;
#X connect 5 0 7 0;
#X connect 5 0 6 0;
#X connect 6 0 23 0;
#X connect 7 0 9 0;
#X connect 7 0 8 0;
#X connect 8 0 21 0;
#X connect 9 0 11 0;
#X connect 10 0 1 0;
#X connect 10 0 0 0;
#X connect 10 0 13 0;
#X connect 14 0 1 1;
#X connect 14 0 0 1;
#X connect 16 0 2 1;
#X connect 16 0 3 1;
#X connect 18 0 5 1;
#X connect 18 0 4 1;
#X connect 20 0 7 1;
#X connect 20 0 6 1;
#X connect 22 0 12 0;
#X connect 24 0 9 1;
#X connect 24 0 8 1;
#X restore 9 416 pd early-reflect;
#X obj 618 216 f;
#X obj 618 105 inlet;
#X obj 696 109 inlet;
#X obj 705 216 f;
#X obj 705 239 * 0.01;
#X obj 705 263 pack 0 50;
#X obj 705 287 line~;
#X obj 29 269 -~;
#X obj 28 300 *~;
#X obj 16 331 +~;
#X obj 132 240 lop~;
#X obj 106 274 -~;
#X obj 105 309 *~;
#X obj 95 333 +~;
#X obj 214 245 lop~;
#X obj 188 273 -~;
#X obj 187 314 *~;
#X obj 176 339 +~;
#X obj 308 249 lop~;
#X obj 281 274 -~;
#X obj 281 318 *~;
#X obj 258 342 +~;
#X obj 609 379 * 0.125;
#X text 403 10 control inlets:;
#X text 9 9 rev2 - simple \, cheap reverberator with;
#X text 400 29 1: output level \, dB \, 0-100;
#X text 8 30 one signal inlet and four signal outlets.;
#X text 399 79 4: high frequency damping \, 0-100;
#X text 400 62 3: crossover frequency in Hz. (3000 default);
#X text 400 45 2: liveness \, 0-100 \, usually between 85 and 100;
#X connect 0 0 9 0;
#X connect 0 0 7 0;
#X connect 1 0 38 0;
#X connect 2 0 10 1;
#X connect 3 0 12 1;
#X connect 3 0 13 1;
#X connect 3 0 43 0;
#X connect 4 0 11 1;
#X connect 5 0 13 0;
#X connect 5 0 12 0;
#X connect 5 0 42 0;
#X connect 6 0 27 0;
#X connect 7 0 26 0;
#X connect 8 0 25 0;
#X connect 9 0 24 0;
#X connect 10 0 14 0;
#X connect 10 0 0 0;
#X connect 10 0 22 0;
#X connect 11 0 0 1;
#X connect 11 0 14 1;
#X connect 11 0 23 0;
#X connect 12 0 8 1;
#X connect 12 0 6 1;
#X connect 13 0 9 1;
#X connect 13 0 7 1;
#X connect 14 0 8 0;
#X connect 14 0 6 0;
#X connect 15 0 37 0;
#X connect 16 0 22 1;
#X connect 16 0 23 1;
#X connect 16 0 42 1;
#X connect 16 0 43 1;
#X connect 17 0 4 1;
#X connect 17 0 2 1;
#X connect 17 0 5 1;
#X connect 17 0 3 1;
#X connect 18 0 36 0;
#X connect 18 0 57 1;
#X connect 18 0 59 0;
#X connect 19 0 60 0;
#X connect 19 0 61 1;
#X connect 19 0 63 0;
#X connect 20 0 67 0;
#X connect 20 0 64 0;
#X connect 20 0 65 1;
#X connect 21 0 71 0;
#X connect 21 0 69 1;
#X connect 21 0 68 0;
#X connect 22 0 32 0;
#X connect 23 0 33 0;
#X connect 28 0 72 0;
#X connect 29 0 16 0;
#X connect 30 0 17 0;
#X connect 31 0 49 0;
#X connect 34 0 30 0;
#X connect 35 0 34 0;
#X connect 36 0 57 0;
#X connect 37 0 28 0;
#X connect 38 0 35 0;
#X connect 39 0 46 0;
#X connect 40 0 48 0;
#X connect 41 0 37 0;
#X connect 41 0 38 0;
#X connect 41 0 39 0;
#X connect 41 0 40 0;
#X connect 42 0 44 0;
#X connect 43 0 45 0;
#X connect 46 0 47 0;
#X connect 46 1 50 0;
#X connect 47 0 50 0;
#X connect 48 0 53 0;
#X connect 49 0 10 0;
#X connect 49 1 11 0;
#X connect 50 0 36 1;
#X connect 50 0 60 1;
#X connect 50 0 64 1;
#X connect 50 0 68 1;
#X connect 51 0 50 0;
#X connect 52 0 40 0;
#X connect 53 0 54 0;
#X connect 54 0 55 0;
#X connect 55 0 56 0;
#X connect 56 0 58 1;
#X connect 56 0 62 1;
#X connect 56 0 66 1;
#X connect 56 0 70 1;
#X connect 57 0 58 0;
#X connect 58 0 59 1;
#X connect 59 0 2 0;
#X connect 60 0 61 0;
#X connect 61 0 62 0;
#X connect 62 0 63 1;
#X connect 63 0 4 0;
#X connect 64 0 65 0;
#X connect 65 0 66 0;
#X connect 66 0 67 1;
#X connect 67 0 5 0;
#X connect 68 0 69 0;
#X connect 69 0 70 0;
#X connect 70 0 71 1;
#X connect 71 0 3 0;
#X connect 72 0 29 0;
#X restore 821 584 pd reverb2;
#X obj 926 526 loadbang;
#X msg 918 555 2000;
#X msg 886 555 70;
#X msg 955 556 20;
#X obj 419 423 loadbang;
#X obj 1016 222 r pannings;
#N canvas -8 -8 1366 695 arp1 0;
#N canvas 640 118 659 415 voice 0;
#X obj 86 320 outlet~;
#X obj 86 155 mtof;
#X obj 86 34 inlet;
#X obj 149 101 bng 15 250 50 0 empty empty empty 17 7 0 10 -262144
-1 -1;
#X msg 150 131 1 5;
#X obj 198 131 del 10;
#X obj 198 152 pack 0 500;
#X floatatom 255 93 5 0 0 0 - - -;
#X obj 198 173 line~;
#X obj 199 208 *~;
#X obj 198 240 *~;
#X floatatom 86 121 5 0 0 0 - - -;
#X obj 255 34 inlet;
#X text 86 17 pitch;
#X text 252 17 decay;
#X obj 166 319 outlet~;
#X obj 86 298 *~;
#X obj 166 298 *~;
#X obj 85 228 osc~;
#X connect 1 0 18 0;
#X connect 2 0 11 0;
#X connect 2 0 3 0;
#X connect 3 0 4 0;
#X connect 3 0 5 0;
#X connect 4 0 8 0;
#X connect 5 0 6 0;
#X connect 6 0 8 0;
#X connect 7 0 6 1;
#X connect 8 0 9 0;
#X connect 8 0 9 1;
#X connect 9 0 10 0;
#X connect 9 0 10 1;
#X connect 10 0 16 1;
#X connect 10 0 17 1;
#X connect 11 0 1 0;
#X connect 12 0 7 0;
#X connect 16 0 0 0;
#X connect 17 0 15 0;
#X connect 18 0 16 0;
#X connect 18 0 17 0;
#X restore 203 353 pd voice;
#X floatatom 119 260 5 0 0 0 - - -;
#N canvas 640 118 659 415 voice 0;
#X obj 87 226 osc~;
#X obj 86 320 outlet~;
#X obj 86 155 mtof;
#X obj 86 34 inlet;
#X obj 149 101 bng 15 250 50 0 empty empty empty 17 7 0 10 -262144
-1 -1;
#X msg 150 131 1 5;
#X obj 198 131 del 10;
#X obj 198 152 pack 0 500;
#X floatatom 255 93 5 0 0 0 - - -;
#X obj 198 173 line~;
#X obj 199 208 *~;
#X obj 198 240 *~;
#X floatatom 86 121 5 0 0 0 - - -;
#X obj 255 34 inlet;
#X text 86 17 pitch;
#X text 252 17 decay;
#X obj 166 319 outlet~;
#X obj 86 298 *~;
#X obj 166 298 *~;
#X connect 0 0 17 0;
#X connect 0 0 18 0;
#X connect 2 0 0 0;
#X connect 3 0 12 0;
#X connect 3 0 4 0;
#X connect 4 0 5 0;
#X connect 4 0 6 0;
#X connect 5 0 9 0;
#X connect 6 0 7 0;
#X connect 7 0 9 0;
#X connect 8 0 7 1;
#X connect 9 0 10 0;
#X connect 9 0 10 1;
#X connect 10 0 11 0;
#X connect 10 0 11 1;
#X connect 11 0 17 1;
#X connect 11 0 18 1;
#X connect 12 0 2 0;
#X connect 13 0 8 0;
#X connect 17 0 1 0;
#X connect 18 0 16 0;
#X restore 263 353 pd voice;
#N canvas 640 118 659 415 voice 0;
#X obj 86 230 osc~;
#X obj 86 320 outlet~;
#X obj 86 155 mtof;
#X obj 86 34 inlet;
#X obj 149 101 bng 15 250 50 0 empty empty empty 17 7 0 10 -262144
-1 -1;
#X msg 150 131 1 5;
#X obj 198 131 del 10;
#X obj 198 152 pack 0 500;
#X floatatom 255 93 5 0 0 0 - - -;
#X obj 198 173 line~;
#X obj 199 208 *~;
#X obj 198 240 *~;
#X floatatom 86 121 5 0 0 0 - - -;
#X obj 255 34 inlet;
#X text 86 17 pitch;
#X text 252 17 decay;
#X obj 166 319 outlet~;
#X obj 86 298 *~;
#X obj 166 298 *~;
#X connect 0 0 17 0;
#X connect 0 0 18 0;
#X connect 2 0 0 0;
#X connect 3 0 12 0;
#X connect 3 0 4 0;
#X connect 4 0 5 0;
#X connect 4 0 6 0;
#X connect 5 0 9 0;
#X connect 6 0 7 0;
#X connect 7 0 9 0;
#X connect 8 0 7 1;
#X connect 9 0 10 0;
#X connect 9 0 10 1;
#X connect 10 0 11 0;
#X connect 10 0 11 1;
#X connect 11 0 17 1;
#X connect 11 0 18 1;
#X connect 12 0 2 0;
#X connect 13 0 8 0;
#X connect 17 0 1 0;
#X connect 18 0 16 0;
#X restore 321 353 pd voice;
#N canvas 640 118 659 415 voice 0;
#X obj 86 237 osc~;
#X obj 86 320 outlet~;
#X obj 86 155 mtof;
#X obj 86 34 inlet;
#X obj 149 101 bng 15 250 50 0 empty empty empty 17 7 0 10 -262144
-1 -1;
#X msg 150 131 1 5;
#X obj 198 131 del 10;
#X obj 198 152 pack 0 500;
#X floatatom 255 93 5 0 0 0 - - -;
#X obj 198 173 line~;
#X obj 199 208 *~;
#X obj 198 240 *~;
#X floatatom 86 121 5 0 0 0 - - -;
#X obj 255 34 inlet;
#X text 86 17 pitch;
#X text 252 17 decay;
#X obj 166 319 outlet~;
#X obj 86 298 *~;
#X obj 166 298 *~;
#X connect 0 0 17 0;
#X connect 0 0 18 0;
#X connect 2 0 0 0;
#X connect 3 0 12 0;
#X connect 3 0 4 0;
#X connect 4 0 5 0;
#X connect 4 0 6 0;
#X connect 5 0 9 0;
#X connect 6 0 7 0;
#X connect 7 0 9 0;
#X connect 8 0 7 1;
#X connect 9 0 10 0;
#X connect 9 0 10 1;
#X connect 10 0 11 0;
#X connect 10 0 11 1;
#X connect 11 0 17 1;
#X connect 11 0 18 1;
#X connect 12 0 2 0;
#X connect 13 0 8 0;
#X connect 17 0 1 0;
#X connect 18 0 16 0;
#X restore 380 353 pd voice;
#N canvas 640 118 659 415 voice 0;
#X obj 87 237 osc~;
#X obj 86 320 outlet~;
#X obj 86 155 mtof;
#X obj 86 34 inlet;
#X obj 149 101 bng 15 250 50 0 empty empty empty 17 7 0 10 -262144
-1 -1;
#X msg 150 131 1 5;
#X obj 198 131 del 10;
#X obj 198 152 pack 0 500;
#X floatatom 255 93 5 0 0 0 - - -;
#X obj 198 173 line~;
#X obj 199 208 *~;
#X obj 198 240 *~;
#X floatatom 86 121 5 0 0 0 - - -;
#X obj 255 34 inlet;
#X text 86 17 pitch;
#X text 252 17 decay;
#X obj 166 319 outlet~;
#X obj 86 298 *~;
#X obj 166 298 *~;
#X connect 0 0 17 0;
#X connect 0 0 18 0;
#X connect 2 0 0 0;
#X connect 3 0 12 0;
#X connect 3 0 4 0;
#X connect 4 0 5 0;
#X connect 4 0 6 0;
#X connect 5 0 9 0;
#X connect 6 0 7 0;
#X connect 7 0 9 0;
#X connect 8 0 7 1;
#X connect 9 0 10 0;
#X connect 9 0 10 1;
#X connect 10 0 11 0;
#X connect 10 0 11 1;
#X connect 11 0 17 1;
#X connect 11 0 18 1;
#X connect 12 0 2 0;
#X connect 13 0 8 0;
#X connect 17 0 1 0;
#X connect 18 0 16 0;
#X restore 438 353 pd voice;
#N canvas 640 118 659 415 voice 0;
#X obj 86 242 osc~;
#X obj 86 320 outlet~;
#X obj 86 155 mtof;
#X obj 86 34 inlet;
#X obj 149 101 bng 15 250 50 0 empty empty empty 17 7 0 10 -262144
-1 -1;
#X msg 150 131 1 5;
#X obj 198 131 del 10;
#X obj 198 152 pack 0 500;
#X floatatom 255 93 5 0 0 0 - - -;
#X obj 198 173 line~;
#X obj 199 208 *~;
#X obj 198 240 *~;
#X floatatom 86 121 5 0 0 0 - - -;
#X obj 255 34 inlet;
#X text 86 17 pitch;
#X text 252 17 decay;
#X obj 166 319 outlet~;
#X obj 86 298 *~;
#X obj 166 298 *~;
#X connect 0 0 17 0;
#X connect 0 0 18 0;
#X connect 2 0 0 0;
#X connect 3 0 12 0;
#X connect 3 0 4 0;
#X connect 4 0 5 0;
#X connect 4 0 6 0;
#X connect 5 0 9 0;
#X connect 6 0 7 0;
#X connect 7 0 9 0;
#X connect 8 0 7 1;
#X connect 9 0 10 0;
#X connect 9 0 10 1;
#X connect 10 0 11 0;
#X connect 10 0 11 1;
#X connect 11 0 17 1;
#X connect 11 0 18 1;
#X connect 12 0 2 0;
#X connect 13 0 8 0;
#X connect 17 0 1 0;
#X connect 18 0 16 0;
#X restore 495 353 pd voice;
#X obj 175 204 inlet;
#X text 122 205 decay;
#N canvas -281 295 1366 695 panning 0;
#X floatatom 199 82 5 0 100 0 - - -;
#X obj 199 176 abs;
#X obj 199 122 - 100;
#X floatatom 199 150 5 0 0 0 - - -;
#X floatatom 199 202 5 0 0 0 - - -;
#X obj 199 228 / 100;
#X obj 152 227 / 100;
#X floatatom 153 265 5 0 0 0 - - -;
#X floatatom 199 266 5 0 0 0 - - -;
#X text 123 248 amount left;
#X text 218 248 amount right;
#X obj 199 48 inlet;
#X obj 153 298 outlet;
#X obj 199 299 outlet;
#X connect 0 0 2 0;
#X connect 0 0 6 0;
#X connect 1 0 4 0;
#X connect 2 0 3 0;
#X connect 3 0 1 0;
#X connect 4 0 5 0;
#X connect 5 0 8 0;
#X connect 6 0 7 0;
#X connect 7 0 12 0;
#X connect 8 0 13 0;
#X connect 11 0 0 0;
#X restore 276 535 pd panning;
#N canvas -8 -8 1366 695 panning 0;
#X floatatom 199 82 5 0 100 0 - - -;
#X obj 199 176 abs;
#X obj 199 122 - 100;
#X floatatom 199 150 5 0 0 0 - - -;
#X floatatom 199 202 5 0 0 0 - - -;
#X obj 199 228 / 100;
#X obj 152 227 / 100;
#X floatatom 153 265 5 0 0 0 - - -;
#X floatatom 199 266 5 0 0 0 - - -;
#X text 123 248 amount left;
#X text 218 248 amount right;
#X obj 199 48 inlet;
#X obj 153 298 outlet;
#X obj 199 299 outlet;
#X connect 0 0 2 0;
#X connect 0 0 6 0;
#X connect 1 0 4 0;
#X connect 2 0 3 0;
#X connect 3 0 1 0;
#X connect 4 0 5 0;
#X connect 5 0 8 0;
#X connect 6 0 7 0;
#X connect 7 0 12 0;
#X connect 8 0 13 0;
#X connect 11 0 0 0;
#X restore 405 530 pd panning;
#N canvas -8 -8 1366 695 panning 0;
#X floatatom 199 82 5 0 100 0 - - -;
#X obj 199 176 abs;
#X obj 199 122 - 100;
#X floatatom 199 150 5 0 0 0 - - -;
#X floatatom 199 202 5 0 0 0 - - -;
#X obj 199 228 / 100;
#X obj 152 227 / 100;
#X floatatom 153 265 5 0 0 0 - - -;
#X floatatom 199 266 5 0 0 0 - - -;
#X text 123 248 amount left;
#X text 218 248 amount right;
#X obj 199 48 inlet;
#X obj 153 298 outlet;
#X obj 199 299 outlet;
#X connect 0 0 2 0;
#X connect 0 0 6 0;
#X connect 1 0 4 0;
#X connect 2 0 3 0;
#X connect 3 0 1 0;
#X connect 4 0 5 0;
#X connect 5 0 8 0;
#X connect 6 0 7 0;
#X connect 7 0 12 0;
#X connect 8 0 13 0;
#X connect 11 0 0 0;
#X restore 532 532 pd panning;
#N canvas -8 -8 1366 695 panning 0;
#X floatatom 199 82 5 0 100 0 - - -;
#X obj 199 176 abs;
#X obj 199 122 - 100;
#X floatatom 199 150 5 0 0 0 - - -;
#X floatatom 199 202 5 0 0 0 - - -;
#X obj 199 228 / 100;
#X obj 152 227 / 100;
#X floatatom 153 265 5 0 0 0 - - -;
#X floatatom 199 266 5 0 0 0 - - -;
#X text 123 248 amount left;
#X text 218 248 amount right;
#X obj 199 48 inlet;
#X obj 153 298 outlet;
#X obj 199 299 outlet;
#X connect 0 0 2 0;
#X connect 0 0 6 0;
#X connect 1 0 4 0;
#X connect 2 0 3 0;
#X connect 3 0 1 0;
#X connect 4 0 5 0;
#X connect 5 0 8 0;
#X connect 6 0 7 0;
#X connect 7 0 12 0;
#X connect 8 0 13 0;
#X connect 11 0 0 0;
#X restore 730 533 pd panning;
#N canvas -8 -8 1366 695 panning 0;
#X floatatom 199 82 5 0 100 0 - - -;
#X obj 199 176 abs;
#X obj 199 122 - 100;
#X floatatom 199 150 5 0 0 0 - - -;
#X floatatom 199 202 5 0 0 0 - - -;
#X obj 199 228 / 100;
#X obj 152 227 / 100;
#X floatatom 153 265 5 0 0 0 - - -;
#X floatatom 199 266 5 0 0 0 - - -;
#X text 123 248 amount left;
#X text 218 248 amount right;
#X obj 199 48 inlet;
#X obj 153 298 outlet;
#X obj 199 299 outlet;
#X connect 0 0 2 0;
#X connect 0 0 6 0;
#X connect 1 0 4 0;
#X connect 2 0 3 0;
#X connect 3 0 1 0;
#X connect 4 0 5 0;
#X connect 5 0 8 0;
#X connect 6 0 7 0;
#X connect 7 0 12 0;
#X connect 8 0 13 0;
#X connect 11 0 0 0;
#X restore 947 490 pd panning;
#N canvas -8 -8 1366 695 panning 0;
#X floatatom 199 82 5 0 100 0 - - -;
#X obj 199 176 abs;
#X obj 199 122 - 100;
#X floatatom 199 150 5 0 0 0 - - -;
#X floatatom 199 202 5 0 0 0 - - -;
#X obj 199 228 / 100;
#X obj 152 227 / 100;
#X floatatom 153 265 5 0 0 0 - - -;
#X floatatom 199 266 5 0 0 0 - - -;
#X text 123 248 amount left;
#X text 218 248 amount right;
#X obj 199 48 inlet;
#X obj 153 298 outlet;
#X obj 199 299 outlet;
#X connect 0 0 2 0;
#X connect 0 0 6 0;
#X connect 1 0 4 0;
#X connect 2 0 3 0;
#X connect 3 0 1 0;
#X connect 4 0 5 0;
#X connect 5 0 8 0;
#X connect 6 0 7 0;
#X connect 7 0 12 0;
#X connect 8 0 13 0;
#X connect 11 0 0 0;
#X restore 1083 520 pd panning;
#X obj 485 652 outlet~;
#X obj 596 651 outlet~;
#X obj 245 204 inlet;
#X obj 288 204 inlet;
#X obj 329 204 inlet;
#X obj 372 204 inlet;
#X obj 412 204 inlet;
#X obj 455 204 inlet;
#X obj 794 207 inlet;
#X obj 862 207 inlet;
#X obj 931 207 inlet;
#X obj 999 207 inlet;
#X obj 1068 207 inlet;
#X obj 1136 207 inlet;
#X obj 223 573 *~;
#X obj 258 573 *~;
#X obj 367 573 *~;
#X obj 392 573 *~;
#X obj 505 573 *~;
#X obj 530 573 *~;
#X obj 709 572 *~;
#X obj 738 572 *~;
#X obj 910 570 *~;
#X obj 935 570 *~;
#X obj 1033 570 *~;
#X obj 1068 571 *~;
#X text 259 168 pitches;
#X text 873 175 panningLeft;
#X connect 0 0 29 0;
#X connect 0 1 30 0;
#X connect 1 0 0 1;
#X connect 1 0 6 1;
#X connect 1 0 5 1;
#X connect 1 0 4 1;
#X connect 1 0 3 1;
#X connect 1 0 2 1;
#X connect 2 0 31 0;
#X connect 2 1 32 0;
#X connect 3 0 33 0;
#X connect 3 1 34 0;
#X connect 4 0 35 0;
#X connect 4 1 36 0;
#X connect 5 0 37 0;
#X connect 5 1 38 0;
#X connect 6 0 39 0;
#X connect 6 1 40 0;
#X connect 7 0 1 0;
#X connect 9 0 29 1;
#X connect 9 1 30 1;
#X connect 10 0 31 1;
#X connect 10 1 32 1;
#X connect 11 0 33 1;
#X connect 11 1 34 1;
#X connect 12 0 35 1;
#X connect 12 1 36 1;
#X connect 13 0 37 1;
#X connect 13 1 38 1;
#X connect 14 0 39 1;
#X connect 14 1 40 1;
#X connect 17 0 0 0;
#X connect 18 0 2 0;
#X connect 19 0 3 0;
#X connect 20 0 4 0;
#X connect 21 0 5 0;
#X connect 22 0 6 0;
#X connect 23 0 9 0;
#X connect 24 0 10 0;
#X connect 25 0 11 0;
#X connect 26 0 12 0;
#X connect 27 0 13 0;
#X connect 28 0 14 0;
#X connect 29 0 15 0;
#X connect 30 0 16 0;
#X connect 31 0 15 0;
#X connect 32 0 16 0;
#X connect 33 0 15 0;
#X connect 34 0 16 0;
#X connect 35 0 15 0;
#X connect 36 0 16 0;
#X connect 37 0 15 0;
#X connect 38 0 16 0;
#X connect 39 0 15 0;
#X connect 40 0 16 0;
#X restore 363 500 pd arp1;
#X f 29;
#X obj 229 373 bng 15 250 50 0 empty empty empty 17 7 0 10 -262144
-1 -1;
#X obj 252 373 bng 15 250 50 0 empty empty empty 17 7 0 10 -262144
-1 -1;
#X obj 275 373 bng 15 250 50 0 empty empty empty 17 7 0 10 -262144
-1 -1;
#X obj 296 373 bng 15 250 50 0 empty empty empty 17 7 0 10 -262144
-1 -1;
#X obj 319 373 bng 15 250 50 0 empty empty empty 17 7 0 10 -262144
-1 -1;
#X obj 340 373 bng 15 250 50 0 empty empty empty 17 7 0 10 -262144
-1 -1;
#X obj 771 29 r start;
#X obj 213 284 f;
#X obj 239 284 f;
#X obj 264 284 f;
#X obj 289 284 f;
#X obj 313 284 f;
#X obj 337 284 f;
#X obj 716 384 f;
#X obj 740 384 f;
#X obj 765 384 f;
#X obj 790 384 f;
#X obj 814 384 f;
#X obj 838 384 f;
#X obj 935 385 f;
#X obj 960 385 f;
#X obj 984 385 f;
#X obj 1008 385 f;
#X obj 1033 385 f;
#X obj 1056 385 f;
#N canvas -8 -8 1366 695 arp2 0;
#N canvas 640 118 659 415 voice 0;
#X obj 86 320 outlet~;
#X obj 86 155 mtof;
#X obj 86 34 inlet;
#X obj 149 101 bng 15 250 50 0 empty empty empty 17 7 0 10 -262144
-1 -1;
#X msg 150 131 1 5;
#X obj 198 131 del 10;
#X obj 198 152 pack 0 500;
#X floatatom 255 93 5 0 0 0 - - -;
#X obj 198 173 line~;
#X obj 199 208 *~;
#X obj 198 240 *~;
#X floatatom 86 121 5 0 0 0 - - -;
#X obj 255 34 inlet;
#X text 86 17 pitch;
#X text 252 17 decay;
#X obj 166 319 outlet~;
#X obj 86 298 *~;
#X obj 166 298 *~;
#X obj 85 228 osc~;
#X connect 1 0 18 0;
#X connect 2 0 11 0;
#X connect 2 0 3 0;
#X connect 3 0 4 0;
#X connect 3 0 5 0;
#X connect 4 0 8 0;
#X connect 5 0 6 0;
#X connect 6 0 8 0;
#X connect 7 0 6 1;
#X connect 8 0 9 0;
#X connect 8 0 9 1;
#X connect 9 0 10 0;
#X connect 9 0 10 1;
#X connect 10 0 16 1;
#X connect 10 0 17 1;
#X connect 11 0 1 0;
#X connect 12 0 7 0;
#X connect 16 0 0 0;
#X connect 17 0 15 0;
#X connect 18 0 16 0;
#X connect 18 0 17 0;
#X restore 203 353 pd voice;
#X floatatom 119 260 5 0 0 0 - - -;
#N canvas 640 118 659 415 voice 0;
#X obj 87 226 osc~;
#X obj 86 320 outlet~;
#X obj 86 155 mtof;
#X obj 86 34 inlet;
#X obj 149 101 bng 15 250 50 0 empty empty empty 17 7 0 10 -262144
-1 -1;
#X msg 150 131 1 5;
#X obj 198 131 del 10;
#X obj 198 152 pack 0 500;
#X floatatom 255 93 5 0 0 0 - - -;
#X obj 198 173 line~;
#X obj 199 208 *~;
#X obj 198 240 *~;
#X floatatom 86 121 5 0 0 0 - - -;
#X obj 255 34 inlet;
#X text 86 17 pitch;
#X text 252 17 decay;
#X obj 166 319 outlet~;
#X obj 86 298 *~;
#X obj 166 298 *~;
#X connect 0 0 17 0;
#X connect 0 0 18 0;
#X connect 2 0 0 0;
#X connect 3 0 12 0;
#X connect 3 0 4 0;
#X connect 4 0 5 0;
#X connect 4 0 6 0;
#X connect 5 0 9 0;
#X connect 6 0 7 0;
#X connect 7 0 9 0;
#X connect 8 0 7 1;
#X connect 9 0 10 0;
#X connect 9 0 10 1;
#X connect 10 0 11 0;
#X connect 10 0 11 1;
#X connect 11 0 17 1;
#X connect 11 0 18 1;
#X connect 12 0 2 0;
#X connect 13 0 8 0;
#X connect 17 0 1 0;
#X connect 18 0 16 0;
#X restore 263 353 pd voice;
#N canvas 640 118 659 415 voice 0;
#X obj 86 230 osc~;
#X obj 86 320 outlet~;
#X obj 86 155 mtof;
#X obj 86 34 inlet;
#X obj 149 101 bng 15 250 50 0 empty empty empty 17 7 0 10 -262144
-1 -1;
#X msg 150 131 1 5;
#X obj 198 131 del 10;
#X obj 198 152 pack 0 500;
#X floatatom 255 93 5 0 0 0 - - -;
#X obj 198 173 line~;
#X obj 199 208 *~;
#X obj 198 240 *~;
#X floatatom 86 121 5 0 0 0 - - -;
#X obj 255 34 inlet;
#X text 86 17 pitch;
#X text 252 17 decay;
#X obj 166 319 outlet~;
#X obj 86 298 *~;
#X obj 166 298 *~;
#X connect 0 0 17 0;
#X connect 0 0 18 0;
#X connect 2 0 0 0;
#X connect 3 0 12 0;
#X connect 3 0 4 0;
#X connect 4 0 5 0;
#X connect 4 0 6 0;
#X connect 5 0 9 0;
#X connect 6 0 7 0;
#X connect 7 0 9 0;
#X connect 8 0 7 1;
#X connect 9 0 10 0;
#X connect 9 0 10 1;
#X connect 10 0 11 0;
#X connect 10 0 11 1;
#X connect 11 0 17 1;
#X connect 11 0 18 1;
#X connect 12 0 2 0;
#X connect 13 0 8 0;
#X connect 17 0 1 0;
#X connect 18 0 16 0;
#X restore 321 353 pd voice;
#N canvas 640 118 659 415 voice 0;
#X obj 86 237 osc~;
#X obj 86 320 outlet~;
#X obj 86 155 mtof;
#X obj 86 34 inlet;
#X obj 149 101 bng 15 250 50 0 empty empty empty 17 7 0 10 -262144
-1 -1;
#X msg 150 131 1 5;
#X obj 198 131 del 10;
#X obj 198 152 pack 0 500;
#X floatatom 255 93 5 0 0 0 - - -;
#X obj 198 173 line~;
#X obj 199 208 *~;
#X obj 198 240 *~;
#X floatatom 86 121 5 0 0 0 - - -;
#X obj 255 34 inlet;
#X text 86 17 pitch;
#X text 252 17 decay;
#X obj 166 319 outlet~;
#X obj 86 298 *~;
#X obj 166 298 *~;
#X connect 0 0 17 0;
#X connect 0 0 18 0;
#X connect 2 0 0 0;
#X connect 3 0 12 0;
#X connect 3 0 4 0;
#X connect 4 0 5 0;
#X connect 4 0 6 0;
#X connect 5 0 9 0;
#X connect 6 0 7 0;
#X connect 7 0 9 0;
#X connect 8 0 7 1;
#X connect 9 0 10 0;
#X connect 9 0 10 1;
#X connect 10 0 11 0;
#X connect 10 0 11 1;
#X connect 11 0 17 1;
#X connect 11 0 18 1;
#X connect 12 0 2 0;
#X connect 13 0 8 0;
#X connect 17 0 1 0;
#X connect 18 0 16 0;
#X restore 380 353 pd voice;
#N canvas 640 118 659 415 voice 0;
#X obj 87 237 osc~;
#X obj 86 320 outlet~;
#X obj 86 155 mtof;
#X obj 86 34 inlet;
#X obj 149 101 bng 15 250 50 0 empty empty empty 17 7 0 10 -262144
-1 -1;
#X msg 150 131 1 5;
#X obj 198 131 del 10;
#X obj 198 152 pack 0 500;
#X floatatom 255 93 5 0 0 0 - - -;
#X obj 198 173 line~;
#X obj 199 208 *~;
#X obj 198 240 *~;
#X floatatom 86 121 5 0 0 0 - - -;
#X obj 255 34 inlet;
#X text 86 17 pitch;
#X text 252 17 decay;
#X obj 166 319 outlet~;
#X obj 86 298 *~;
#X obj 166 298 *~;
#X connect 0 0 17 0;
#X connect 0 0 18 0;
#X connect 2 0 0 0;
#X connect 3 0 12 0;
#X connect 3 0 4 0;
#X connect 4 0 5 0;
#X connect 4 0 6 0;
#X connect 5 0 9 0;
#X connect 6 0 7 0;
#X connect 7 0 9 0;
#X connect 8 0 7 1;
#X connect 9 0 10 0;
#X connect 9 0 10 1;
#X connect 10 0 11 0;
#X connect 10 0 11 1;
#X connect 11 0 17 1;
#X connect 11 0 18 1;
#X connect 12 0 2 0;
#X connect 13 0 8 0;
#X connect 17 0 1 0;
#X connect 18 0 16 0;
#X restore 438 353 pd voice;
#N canvas 640 118 659 415 voice 0;
#X obj 86 242 osc~;
#X obj 86 320 outlet~;
#X obj 86 155 mtof;
#X obj 86 34 inlet;
#X obj 149 101 bng 15 250 50 0 empty empty empty 17 7 0 10 -262144
-1 -1;
#X msg 150 131 1 5;
#X obj 198 131 del 10;
#X obj 198 152 pack 0 500;
#X floatatom 255 93 5 0 0 0 - - -;
#X obj 198 173 line~;
#X obj 199 208 *~;
#X obj 198 240 *~;
#X floatatom 86 121 5 0 0 0 - - -;
#X obj 255 34 inlet;
#X text 86 17 pitch;
#X text 252 17 decay;
#X obj 166 319 outlet~;
#X obj 86 298 *~;
#X obj 166 298 *~;
#X connect 0 0 17 0;
#X connect 0 0 18 0;
#X connect 2 0 0 0;
#X connect 3 0 12 0;
#X connect 3 0 4 0;
#X connect 4 0 5 0;
#X connect 4 0 6 0;
#X connect 5 0 9 0;
#X connect 6 0 7 0;
#X connect 7 0 9 0;
#X connect 8 0 7 1;
#X connect 9 0 10 0;
#X connect 9 0 10 1;
#X connect 10 0 11 0;
#X connect 10 0 11 1;
#X connect 11 0 17 1;
#X connect 11 0 18 1;
#X connect 12 0 2 0;
#X connect 13 0 8 0;
#X connect 17 0 1 0;
#X connect 18 0 16 0;
#X restore 495 353 pd voice;
#X obj 175 204 inlet;
#X text 122 205 decay;
#N canvas -281 295 1366 695 panning 0;
#X floatatom 199 82 5 0 100 0 - - -;
#X obj 199 176 abs;
#X obj 199 122 - 100;
#X floatatom 199 150 5 0 0 0 - - -;
#X floatatom 199 202 5 0 0 0 - - -;
#X obj 199 228 / 100;
#X obj 152 227 / 100;
#X floatatom 153 265 5 0 0 0 - - -;
#X floatatom 199 266 5 0 0 0 - - -;
#X text 123 248 amount left;
#X text 218 248 amount right;
#X obj 199 48 inlet;
#X obj 153 298 outlet;
#X obj 199 299 outlet;
#X connect 0 0 2 0;
#X connect 0 0 6 0;
#X connect 1 0 4 0;
#X connect 2 0 3 0;
#X connect 3 0 1 0;
#X connect 4 0 5 0;
#X connect 5 0 8 0;
#X connect 6 0 7 0;
#X connect 7 0 12 0;
#X connect 8 0 13 0;
#X connect 11 0 0 0;
#X restore 276 535 pd panning;
#N canvas -8 -8 1366 695 panning 0;
#X floatatom 199 82 5 0 100 0 - - -;
#X obj 199 176 abs;
#X obj 199 122 - 100;
#X floatatom 199 150 5 0 0 0 - - -;
#X floatatom 199 202 5 0 0 0 - - -;
#X obj 199 228 / 100;
#X obj 152 227 / 100;
#X floatatom 153 265 5 0 0 0 - - -;
#X floatatom 199 266 5 0 0 0 - - -;
#X text 123 248 amount left;
#X text 218 248 amount right;
#X obj 199 48 inlet;
#X obj 153 298 outlet;
#X obj 199 299 outlet;
#X connect 0 0 2 0;
#X connect 0 0 6 0;
#X connect 1 0 4 0;
#X connect 2 0 3 0;
#X connect 3 0 1 0;
#X connect 4 0 5 0;
#X connect 5 0 8 0;
#X connect 6 0 7 0;
#X connect 7 0 12 0;
#X connect 8 0 13 0;
#X connect 11 0 0 0;
#X restore 405 530 pd panning;
#N canvas -8 -8 1366 695 panning 0;
#X floatatom 199 82 5 0 100 0 - - -;
#X obj 199 176 abs;
#X obj 199 122 - 100;
#X floatatom 199 150 5 0 0 0 - - -;
#X floatatom 199 202 5 0 0 0 - - -;
#X obj 199 228 / 100;
#X obj 152 227 / 100;
#X floatatom 153 265 5 0 0 0 - - -;
#X floatatom 199 266 5 0 0 0 - - -;
#X text 123 248 amount left;
#X text 218 248 amount right;
#X obj 199 48 inlet;
#X obj 153 298 outlet;
#X obj 199 299 outlet;
#X connect 0 0 2 0;
#X connect 0 0 6 0;
#X connect 1 0 4 0;
#X connect 2 0 3 0;
#X connect 3 0 1 0;
#X connect 4 0 5 0;
#X connect 5 0 8 0;
#X connect 6 0 7 0;
#X connect 7 0 12 0;
#X connect 8 0 13 0;
#X connect 11 0 0 0;
#X restore 532 532 pd panning;
#N canvas -8 -8 1366 695 panning 0;
#X floatatom 199 82 5 0 100 0 - - -;
#X obj 199 176 abs;
#X obj 199 122 - 100;
#X floatatom 199 150 5 0 0 0 - - -;
#X floatatom 199 202 5 0 0 0 - - -;
#X obj 199 228 / 100;
#X obj 152 227 / 100;
#X floatatom 153 265 5 0 0 0 - - -;
#X floatatom 199 266 5 0 0 0 - - -;
#X text 123 248 amount left;
#X text 218 248 amount right;
#X obj 199 48 inlet;
#X obj 153 298 outlet;
#X obj 199 299 outlet;
#X connect 0 0 2 0;
#X connect 0 0 6 0;
#X connect 1 0 4 0;
#X connect 2 0 3 0;
#X connect 3 0 1 0;
#X connect 4 0 5 0;
#X connect 5 0 8 0;
#X connect 6 0 7 0;
#X connect 7 0 12 0;
#X connect 8 0 13 0;
#X connect 11 0 0 0;
#X restore 730 533 pd panning;
#N canvas -8 -8 1366 695 panning 0;
#X floatatom 199 82 5 0 100 0 - - -;
#X obj 199 176 abs;
#X obj 199 122 - 100;
#X floatatom 199 150 5 0 0 0 - - -;
#X floatatom 199 202 5 0 0 0 - - -;
#X obj 199 228 / 100;
#X obj 152 227 / 100;
#X floatatom 153 265 5 0 0 0 - - -;
#X floatatom 199 266 5 0 0 0 - - -;
#X text 123 248 amount left;
#X text 218 248 amount right;
#X obj 199 48 inlet;
#X obj 153 298 outlet;
#X obj 199 299 outlet;
#X connect 0 0 2 0;
#X connect 0 0 6 0;
#X connect 1 0 4 0;
#X connect 2 0 3 0;
#X connect 3 0 1 0;
#X connect 4 0 5 0;
#X connect 5 0 8 0;
#X connect 6 0 7 0;
#X connect 7 0 12 0;
#X connect 8 0 13 0;
#X connect 11 0 0 0;
#X restore 947 490 pd panning;
#N canvas -8 -8 1366 695 panning 0;
#X floatatom 199 82 5 0 100 0 - - -;
#X obj 199 176 abs;
#X obj 199 122 - 100;
#X floatatom 199 150 5 0 0 0 - - -;
#X floatatom 199 202 5 0 0 0 - - -;
#X obj 199 228 / 100;
#X obj 152 227 / 100;
#X floatatom 153 265 5 0 0 0 - - -;
#X floatatom 199 266 5 0 0 0 - - -;
#X text 123 248 amount left;
#X text 218 248 amount right;
#X obj 199 48 inlet;
#X obj 153 298 outlet;
#X obj 199 299 outlet;
#X connect 0 0 2 0;
#X connect 0 0 6 0;
#X connect 1 0 4 0;
#X connect 2 0 3 0;
#X connect 3 0 1 0;
#X connect 4 0 5 0;
#X connect 5 0 8 0;
#X connect 6 0 7 0;
#X connect 7 0 12 0;
#X connect 8 0 13 0;
#X connect 11 0 0 0;
#X restore 1083 520 pd panning;
#X obj 485 652 outlet~;
#X obj 596 651 outlet~;
#X obj 245 204 inlet;
#X obj 288 204 inlet;
#X obj 329 204 inlet;
#X obj 372 204 inlet;
#X obj 412 204 inlet;
#X obj 455 204 inlet;
#X obj 794 207 inlet;
#X obj 862 207 inlet;
#X obj 931 207 inlet;
#X obj 999 207 inlet;
#X obj 1068 207 inlet;
#X obj 1136 207 inlet;
#X obj 223 573 *~;
#X obj 258 573 *~;
#X obj 367 573 *~;
#X obj 392 573 *~;
#X obj 505 573 *~;
#X obj 530 573 *~;
#X obj 709 572 *~;
#X obj 738 572 *~;
#X obj 910 570 *~;
#X obj 935 570 *~;
#X obj 1033 570 *~;
#X obj 1068 571 *~;
#X connect 0 0 29 0;
#X connect 0 1 30 0;
#X connect 1 0 0 1;
#X connect 1 0 6 1;
#X connect 1 0 5 1;
#X connect 1 0 4 1;
#X connect 1 0 3 1;
#X connect 1 0 2 1;
#X connect 2 0 31 0;
#X connect 2 1 32 0;
#X connect 3 0 33 0;
#X connect 3 1 34 0;
#X connect 4 0 35 0;
#X connect 4 1 36 0;
#X connect 5 0 37 0;
#X connect 5 1 38 0;
#X connect 6 0 39 0;
#X connect 6 1 40 0;
#X connect 7 0 1 0;
#X connect 9 0 29 1;
#X connect 9 1 30 1;
#X connect 10 0 31 1;
#X connect 10 1 32 1;
#X connect 11 0 33 1;
#X connect 11 1 34 1;
#X connect 12 0 35 1;
#X connect 12 1 36 1;
#X connect 13 0 37 1;
#X connect 13 1 38 1;
#X connect 14 0 39 1;
#X connect 14 1 40 1;
#X connect 17 0 0 0;
#X connect 18 0 2 0;
#X connect 19 0 3 0;
#X connect 20 0 4 0;
#X connect 21 0 5 0;
#X connect 22 0 6 0;
#X connect 23 0 9 0;
#X connect 24 0 10 0;
#X connect 25 0 11 0;
#X connect 26 0 12 0;
#X connect 27 0 13 0;
#X connect 28 0 14 0;
#X connect 29 0 15 0;
#X connect 30 0 16 0;
#X connect 31 0 15 0;
#X connect 32 0 16 0;
#X connect 33 0 15 0;
#X connect 34 0 16 0;
#X connect 35 0 15 0;
#X connect 36 0 16 0;
#X connect 37 0 15 0;
#X connect 38 0 16 0;
#X connect 39 0 15 0;
#X connect 40 0 16 0;
#X restore 639 501 pd arp2;
#X f 30;
#X text 415 402 decay;
#X obj 604 23 r stop;
#X obj 624 53 bng 15 250 50 0 empty empty empty 17 7 0 10 -262144 -1
-1;
#X msg 713 62 set 0;
#X msg 670 104 stop;
#X obj 788 610 *~ 0.5;
#X obj 840 611 *~ 0.5;
#X obj 560 621 *~ 0.1;
#X obj 622 619 *~ 0.1;
#X obj 993 252 unpack 0 0 0 0 0 0 0 0 0 0 0 0, f 32;
#X obj 401 280 f;
#X obj 428 280 f;
#X obj 453 280 f;
#X obj 478 280 f;
#X obj 502 280 f;
#X obj 529 281 f;
#X obj 779 95 tgl 15 0 empty empty empty 17 7 0 10 -262144 -1 -1 0
1;
#X obj 95 115 unpack 0 0 0 0 0 0 0 0 0 0 0 0, f 39;
#X obj 95 89 r pitches;
#X msg 576 82 0;
#N canvas 275 132 1011 576 partA 0;
#X obj 232 280 f;
#X obj 260 279 + 1;
#X obj 232 378 sel 0 1 2 3 4 5;
#X obj 387 472 f;
#X obj 448 472 f;
#X obj 507 472 f;
#X obj 565 472 f;
#X obj 622 472 f;
#X obj 680 472 f;
#X obj 232 238 bng 15 250 50 0 empty empty empty 17 7 0 10 -262144
-1 -1;
#X obj 383 98 inlet;
#X obj 426 98 inlet;
#X obj 467 98 inlet;
#X obj 510 98 inlet;
#X obj 550 98 inlet;
#X obj 593 98 inlet;
#X floatatom 387 493 5 0 0 0 - - -;
#X floatatom 448 493 5 0 0 0 - - -;
#X floatatom 507 493 5 0 0 0 - - -;
#X obj 507 513 outlet;
#X floatatom 565 493 5 0 0 0 - - -;
#X obj 565 513 outlet;
#X obj 387 513 outlet;
#X obj 448 513 outlet;
#X floatatom 622 493 5 0 0 0 - - -;
#X obj 622 513 outlet;
#X floatatom 680 493 5 0 0 0 - - -;
#X obj 680 513 outlet;
#X floatatom 383 119 5 0 0 0 - - -;
#X floatatom 426 119 5 0 0 0 - - -;
#X floatatom 467 119 5 0 0 0 - - -;
#X floatatom 510 119 5 0 0 0 - - -;
#X floatatom 550 119 5 0 0 0 - - -;
#X floatatom 593 119 5 0 0 0 - - -;
#X floatatom 232 301 5 0 0 0 - - -;
#X obj 232 321 % 6;
#X floatatom 232 342 5 0 0 0 - - -;
#X obj 232 154 inlet;
#X obj 150 155 inlet;
#X text 145 137 reset;
#X text 233 133 play;
#X connect 0 0 1 0;
#X connect 0 0 34 0;
#X connect 1 0 0 1;
#X connect 2 0 3 0;
#X connect 2 1 4 0;
#X connect 2 2 5 0;
#X connect 2 3 6 0;
#X connect 2 4 7 0;
#X connect 2 5 8 0;
#X connect 3 0 16 0;
#X connect 4 0 17 0;
#X connect 5 0 18 0;
#X connect 6 0 20 0;
#X connect 7 0 24 0;
#X connect 8 0 26 0;
#X connect 9 0 0 0;
#X connect 10 0 28 0;
#X connect 11 0 29 0;
#X connect 12 0 30 0;
#X connect 13 0 31 0;
#X connect 14 0 32 0;
#X connect 15 0 33 0;
#X connect 16 0 22 0;
#X connect 17 0 23 0;
#X connect 18 0 19 0;
#X connect 20 0 21 0;
#X connect 24 0 25 0;
#X connect 26 0 27 0;
#X connect 28 0 3 1;
#X connect 29 0 4 1;
#X connect 30 0 5 1;
#X connect 31 0 6 1;
#X connect 32 0 7 1;
#X connect 33 0 8 1;
#X connect 34 0 35 0;
#X connect 35 0 36 0;
#X connect 36 0 2 0;
#X connect 37 0 9 0;
#X restore 253 345 pd partA;
#X f 16;
#X obj 451 373 bng 15 250 50 0 empty empty empty 17 7 0 10 -262144
-1 -1;
#X obj 474 373 bng 15 250 50 0 empty empty empty 17 7 0 10 -262144
-1 -1;
#X obj 497 373 bng 15 250 50 0 empty empty empty 17 7 0 10 -262144
-1 -1;
#X obj 518 373 bng 15 250 50 0 empty empty empty 17 7 0 10 -262144
-1 -1;
#X obj 541 373 bng 15 250 50 0 empty empty empty 17 7 0 10 -262144
-1 -1;
#X obj 562 373 bng 15 250 50 0 empty empty empty 17 7 0 10 -262144
-1 -1;
#N canvas 275 132 1011 576 partB 0;
#X obj 232 280 f;
#X obj 260 279 + 1;
#X obj 232 378 sel 0 1 2 3 4 5;
#X obj 387 472 f;
#X obj 448 472 f;
#X obj 507 472 f;
#X obj 565 472 f;
#X obj 622 472 f;
#X obj 680 472 f;
#X obj 232 238 bng 15 250 50 0 empty empty empty 17 7 0 10 -262144
-1 -1;
#X obj 383 98 inlet;
#X obj 426 98 inlet;
#X obj 467 98 inlet;
#X obj 510 98 inlet;
#X obj 550 98 inlet;
#X obj 593 98 inlet;
#X floatatom 387 493 5 0 0 0 - - -;
#X floatatom 448 493 5 0 0 0 - - -;
#X floatatom 507 493 5 0 0 0 - - -;
#X obj 507 513 outlet;
#X floatatom 565 493 5 0 0 0 - - -;
#X obj 565 513 outlet;
#X obj 387 513 outlet;
#X obj 448 513 outlet;
#X floatatom 622 493 5 0 0 0 - - -;
#X obj 622 513 outlet;
#X floatatom 680 493 5 0 0 0 - - -;
#X obj 680 513 outlet;
#X floatatom 383 119 5 0 0 0 - - -;
#X floatatom 426 119 5 0 0 0 - - -;
#X floatatom 467 119 5 0 0 0 - - -;
#X floatatom 510 119 5 0 0 0 - - -;
#X floatatom 550 119 5 0 0 0 - - -;
#X floatatom 593 119 5 0 0 0 - - -;
#X floatatom 232 301 5 0 0 0 - - -;
#X obj 232 321 % 6;
#X floatatom 232 342 5 0 0 0 - - -;
#X obj 232 154 inlet;
#X obj 150 155 inlet;
#X text 145 137 reset;
#X text 233 133 play;
#X connect 0 0 1 0;
#X connect 0 0 34 0;
#X connect 1 0 0 1;
#X connect 2 0 3 0;
#X connect 2 1 4 0;
#X connect 2 2 5 0;
#X connect 2 3 6 0;
#X connect 2 4 7 0;
#X connect 2 5 8 0;
#X connect 3 0 16 0;
#X connect 4 0 17 0;
#X connect 5 0 18 0;
#X connect 6 0 20 0;
#X connect 7 0 24 0;
#X connect 8 0 26 0;
#X connect 9 0 0 0;
#X connect 10 0 28 0;
#X connect 11 0 29 0;
#X connect 12 0 30 0;
#X connect 13 0 31 0;
#X connect 14 0 32 0;
#X connect 15 0 33 0;
#X connect 16 0 22 0;
#X connect 17 0 23 0;
#X connect 18 0 19 0;
#X connect 20 0 21 0;
#X connect 24 0 25 0;
#X connect 26 0 27 0;
#X connect 28 0 3 1;
#X connect 29 0 4 1;
#X connect 30 0 5 1;
#X connect 31 0 6 1;
#X connect 32 0 7 1;
#X connect 33 0 8 1;
#X connect 34 0 35 0;
#X connect 35 0 36 0;
#X connect 36 0 2 0;
#X connect 37 0 9 0;
#X restore 494 346 pd partB;
#X f 16;
#X obj 484 31 r init;
#X obj 483 71 bng 15 250 50 0 empty empty empty 17 7 0 10 -262144 -1
-1;
#X obj 737 140 metro 200;
#N canvas -8 -8 1366 695 padTree 1;
#X obj 214 36 inlet;
#X floatatom 213 65 5 0 0 0 - - -;
#X obj 870 510 vline~;
#X obj 525 602 *~;
#X obj 811 134 bng 15 250 50 0 empty empty empty 17 7 0 10 -262144
-1 -1;
#X floatatom 212 179 5 0 0 0 - - -;
#X obj 198 324 mtof;
#X obj 413 334 mtof;
#X obj 521 325 mtof;
#X obj 524 667 outlet~;
#X obj 809 66 inlet;
#X text 966 23 START;
#X obj 977 52 inlet;
#X obj 1122 39 inlet;
#X msg 726 350 0.75;
#X msg 1000 413 0;
#X obj 349 36 inlet;
#X floatatom 345 87 5 0 0 0 - - -;
#X obj 472 40 inlet;
#X floatatom 473 77 5 0 0 0 - - -;
#X text 215 16 root;
#X text 350 16 third;
#X obj 771 251 line, f 5;
#X floatatom 771 272 5 0 0 0 - - -;
#X floatatom 789 454 5 0 0 0 - - -;
#X obj 195 357 phasor~;
#X obj 413 360 phasor~;
#X obj 523 362 phasor~;
#X msg 769 206 0 \, 1 10000;
#X obj 521 559 lop~;
#X obj 350 359 phasor~;
#X obj 329 137 + 24.016;
#X obj 350 328 mtof;
#X obj 585 327 mtof;
#X obj 587 364 phasor~;
#X obj 534 140 + 12.02;
#X obj 478 138 + 11.987;
#X floatatom 155 177 5 0 0 0 - - -;
#X obj 141 322 mtof;
#X obj 138 355 phasor~;
#X obj 216 98 + 24.012;
#X obj 158 96 + 23.96;
#X text 461 17 dropped fifth;
#X obj 296 356 phasor~;
#X obj 296 325 mtof;
#X obj 271 139 + 12;
#X obj 78 322 mtof;
#X obj 75 355 phasor~;
#X obj 89 99 + 12.0147;
#X obj 79 408 *~ 0.5;
#X obj 519 406 *~ 0.75;
#X obj 437 600 *~;
#X obj 436 665 outlet~;
#X obj 438 562 lop~;
#X obj 83 440 hip~ 80;
#X obj 164 414 *~ 0.35;
#X obj 222 413 *~ 0.65;
#X obj 307 405 *~ 0.5;
#X obj 372 406 *~ 0.75;
#X obj 446 405 *~ 0.25;
#X obj 598 409 *~ 0.75;
#X obj 306 435 hip~ 1000;
#X obj 379 438 hip~ 5000;
#X obj 443 435 hip~ 10000;
#X obj 514 436 hip~ 2000;
#X obj 593 439 hip~ 6000;
#X obj 163 445 hip~ 200;
#X obj 220 444 hip~ 200;
#X obj 393 137 + 36.0124;
#X obj 771 292 * 250;
#X msg 856 306 0.75 8000 \, 0 12000 8000;
#X obj 657 324 mtof;
#X obj 659 361 phasor~;
#X obj 670 406 *~ 0.75;
#X obj 597 140 + 35.998;
#X obj 665 439 hip~ 2000;
#X obj 438 636 *~ 1;
#X obj 526 638 *~ 1;
#X msg 1062 520 1;
#X text 1127 19 STOP;
#X text 809 44 PLAY;
#X connect 0 0 1 0;
#X connect 1 0 40 0;
#X connect 1 0 41 0;
#X connect 1 0 48 0;
#X connect 2 0 3 1;
#X connect 2 0 51 1;
#X connect 3 0 77 0;
#X connect 4 0 70 0;
#X connect 4 0 28 0;
#X connect 5 0 6 0;
#X connect 6 0 25 0;
#X connect 7 0 26 0;
#X connect 8 0 27 0;
#X connect 10 0 4 0;
#X connect 12 0 78 0;
#X connect 13 0 15 0;
#X connect 14 0 77 1;
#X connect 15 0 76 1;
#X connect 15 0 77 1;
#X connect 15 0 2 0;
#X connect 16 0 17 0;
#X connect 17 0 45 0;
#X connect 17 0 68 0;
#X connect 17 0 31 0;
#X connect 18 0 19 0;
#X connect 19 0 36 0;
#X connect 19 0 35 0;
#X connect 19 0 74 0;
#X connect 22 0 23 0;
#X connect 23 0 69 0;
#X connect 24 0 29 1;
#X connect 24 0 53 1;
#X connect 25 0 56 0;
#X connect 26 0 59 0;
#X connect 27 0 50 0;
#X connect 28 0 22 0;
#X connect 29 0 3 0;
#X connect 30 0 58 0;
#X connect 31 0 32 0;
#X connect 32 0 30 0;
#X connect 33 0 34 0;
#X connect 34 0 60 0;
#X connect 35 0 33 0;
#X connect 36 0 8 0;
#X connect 37 0 38 0;
#X connect 38 0 39 0;
#X connect 39 0 55 0;
#X connect 40 0 5 0;
#X connect 41 0 37 0;
#X connect 43 0 57 0;
#X connect 44 0 43 0;
#X connect 45 0 44 0;
#X connect 46 0 47 0;
#X connect 47 0 49 0;
#X connect 48 0 46 0;
#X connect 49 0 54 0;
#X connect 50 0 64 0;
#X connect 51 0 76 0;
#X connect 53 0 51 0;
#X connect 54 0 53 0;
#X connect 55 0 66 0;
#X connect 56 0 67 0;
#X connect 57 0 61 0;
#X connect 58 0 62 0;
#X connect 59 0 63 0;
#X connect 60 0 65 0;
#X connect 61 0 29 0;
#X connect 62 0 53 0;
#X connect 63 0 29 0;
#X connect 64 0 53 0;
#X connect 65 0 29 0;
#X connect 66 0 29 0;
#X connect 67 0 29 0;
#X connect 68 0 7 0;
#X connect 69 0 24 0;
#X connect 70 0 2 0;
#X connect 71 0 72 0;
#X connect 72 0 73 0;
#X connect 73 0 75 0;
#X connect 74 0 71 0;
#X connect 75 0 53 0;
#X connect 76 0 52 0;
#X connect 77 0 9 0;
#X connect 78 0 76 1;
#X connect 78 0 77 1;
#X restore 856 180 pd padTree;
#X f 17;
#X obj 873 215 dac~;
#X msg 417 450 1000;
#X obj 866 122 unpack 0 0 0;
#X msg 852 554 85;
#X obj 968 100 r playChord;
#X obj 866 98 r chordNotes;
#X connect 1 0 40 0;
#X connect 1 1 41 0;
#X connect 2 0 70 0;
#X connect 2 0 4 0;
#X connect 2 0 3 0;
#X connect 2 0 5 0;
#X connect 3 0 1 3;
#X connect 4 0 1 2;
#X connect 5 0 1 4;
#X connect 6 0 68 0;
#X connect 7 0 44 0;
#X connect 8 0 1 0;
#X connect 8 0 42 0;
#X connect 8 1 1 0;
#X connect 8 1 43 0;
#X connect 15 0 51 0;
#X connect 15 0 66 4;
#X connect 16 0 55 2;
#X connect 17 0 55 3;
#X connect 18 0 55 4;
#X connect 19 0 55 5;
#X connect 20 0 55 6;
#X connect 21 0 55 7;
#X connect 22 0 8 7;
#X connect 23 0 8 8;
#X connect 24 0 8 9;
#X connect 25 0 8 10;
#X connect 26 0 8 11;
#X connect 27 0 8 12;
#X connect 28 0 34 7;
#X connect 29 0 34 8;
#X connect 30 0 34 9;
#X connect 31 0 34 10;
#X connect 32 0 34 11;
#X connect 33 0 34 12;
#X connect 34 0 1 0;
#X connect 34 0 42 0;
#X connect 34 1 1 0;
#X connect 34 1 43 0;
#X connect 36 0 37 0;
#X connect 37 0 38 0;
#X connect 37 0 39 0;
#X connect 37 0 54 0;
#X connect 37 0 66 5;
#X connect 38 0 51 0;
#X connect 39 0 65 0;
#X connect 40 0 0 0;
#X connect 41 0 0 1;
#X connect 42 0 0 0;
#X connect 43 0 0 1;
#X connect 44 0 22 1;
#X connect 44 1 23 1;
#X connect 44 2 24 1;
#X connect 44 3 25 1;
#X connect 44 4 26 1;
#X connect 44 5 27 1;
#X connect 44 6 28 1;
#X connect 44 7 29 1;
#X connect 44 8 30 1;
#X connect 44 9 31 1;
#X connect 44 10 32 1;
#X connect 44 11 33 1;
#X connect 45 0 62 2;
#X connect 46 0 62 3;
#X connect 47 0 62 4;
#X connect 48 0 62 5;
#X connect 49 0 62 6;
#X connect 50 0 62 7;
#X connect 51 0 65 0;
#X connect 52 0 16 1;
#X connect 52 1 17 1;
#X connect 52 2 18 1;
#X connect 52 3 19 1;
#X connect 52 4 20 1;
#X connect 52 5 21 1;
#X connect 52 6 45 1;
#X connect 52 7 46 1;
#X connect 52 8 47 1;
#X connect 52 9 48 1;
#X connect 52 10 49 1;
#X connect 52 11 50 1;
#X connect 53 0 52 0;
#X connect 54 0 55 0;
#X connect 54 0 62 0;
#X connect 55 0 9 0;
#X connect 55 0 8 1;
#X connect 55 1 10 0;
#X connect 55 1 8 2;
#X connect 55 2 11 0;
#X connect 55 2 8 3;
#X connect 55 3 12 0;
#X connect 55 3 8 4;
#X connect 55 4 13 0;
#X connect 55 4 8 5;
#X connect 55 5 14 0;
#X connect 55 5 8 6;
#X connect 62 0 56 0;
#X connect 62 0 34 1;
#X connect 62 1 57 0;
#X connect 62 1 34 2;
#X connect 62 2 58 0;
#X connect 62 2 34 3;
#X connect 62 3 59 0;
#X connect 62 3 34 4;
#X connect 62 4 60 0;
#X connect 62 4 34 5;
#X connect 62 5 61 0;
#X connect 62 5 34 6;
#X connect 63 0 64 0;
#X connect 64 0 16 0;
#X connect 64 0 21 0;
#X connect 64 0 20 0;
#X connect 64 0 19 0;
#X connect 64 0 18 0;
#X connect 64 0 17 0;
#X connect 64 0 45 0;
#X connect 64 0 50 0;
#X connect 64 0 49 0;
#X connect 64 0 48 0;
#X connect 64 0 47 0;
#X connect 64 0 46 0;
#X connect 64 0 22 0;
#X connect 64 0 33 0;
#X connect 64 0 32 0;
#X connect 64 0 31 0;
#X connect 64 0 30 0;
#X connect 64 0 29 0;
#X connect 64 0 28 0;
#X connect 64 0 27 0;
#X connect 64 0 26 0;
#X connect 64 0 25 0;
#X connect 64 0 24 0;
#X connect 64 0 23 0;
#X connect 65 0 55 1;
#X connect 65 0 50 0;
#X connect 65 0 49 0;
#X connect 65 0 48 0;
#X connect 65 0 47 0;
#X connect 65 0 46 0;
#X connect 65 0 45 0;
#X connect 65 0 21 0;
#X connect 65 0 20 0;
#X connect 65 0 19 0;
#X connect 65 0 18 0;
#X connect 65 0 17 0;
#X connect 65 0 16 0;
#X connect 65 0 22 0;
#X connect 65 0 33 0;
#X connect 65 0 32 0;
#X connect 65 0 31 0;
#X connect 65 0 30 0;
#X connect 65 0 29 0;
#X connect 65 0 28 0;
#X connect 65 0 27 0;
#X connect 65 0 26 0;
#X connect 65 0 25 0;
#X connect 65 0 24 0;
#X connect 65 0 23 0;
#X connect 65 0 62 1;
#X connect 66 0 67 0;
#X connect 66 0 1 0;
#X connect 66 1 67 1;
#X connect 66 1 1 0;
#X connect 68 0 8 0;
#X connect 68 0 34 0;
#X connect 69 0 66 0;
#X connect 69 1 66 1;
#X connect 69 2 66 2;
#X connect 70 0 1 1;
#X connect 71 0 66 3;
#X connect 72 0 69 0;
